# xmcd CD database file
# Copyright (C) 1995-1998 Ti Kan
#
# Track frame offsets:
#	150
#	141982
#	152932
#	166432
#	169882
#	180082
#	194032
#	207832
#	220732
#	232357
#	236182
#	249532
#	265357
#	280582
#	283807
#	295507
#
# Disc length: 4195 seconds
#
# Revision: 2
# Processed by: cddbd v1.4PL0 Copyright (c) Steve Scherf et al.
# Submitted via: CDex 1.40Beta1
#
DISCID=fe106110
DTITLE=Railroad Tycoon II German - Railroad Tycoon II German
DYEAR=1900
DGENRE=Blues
TTITLE0=Railroad Tycoon 2 Data
TTITLE1=Railroad Tycoon 2
TTITLE2=Railroad Tycoon 2
TTITLE3=Railroad Tycoon 2
TTITLE4=Railroad Tycoon 2
TTITLE5=Railroad Tycoon 2
TTITLE6=Railroad Tycoon 2
TTITLE7=Railroad Tycoon 2
TTITLE8=Railroad Tycoon 2
TTITLE9=Railroad Tycoon 2
TTITLE10=Railroad Tycoon 2
TTITLE11=Railroad Tycoon 2
TTITLE12=Railroad Tycoon 2
TTITLE13=Railroad Tycoon 2
TTITLE14=Railroad Tycoon 2
TTITLE15=Railroad Tycoon 2
EXTD=Railroad Tycoon II German Version\nMixed Mode CD: 1 datatrack, followed
EXTD=by 15 audiotracks\nDisc is copy-protected with SafeDisc CDROM Protecti
EXTD=on System. ID3G:   0
EXTT0=
EXTT1=
EXTT2=
EXTT3=
EXTT4=
EXTT5=
EXTT6=
EXTT7=
EXTT8=
EXTT9=
EXTT10=
EXTT11=
EXTT12=
EXTT13=
EXTT14=
EXTT15=
PLAYORDER=
